<svg width="36" height="37" viewBox="0 0 36 37" fill="none" xmlns="http://www.w3.org/2000/svg">
<g id="Group 34529">
<path id="Union" d="M5.67515 23.3504C6.98624 30.3801 13.7477 35.0159 20.7774 33.7048C27.807 32.3937 32.4428 25.6322 31.1317 18.6026C29.8207 11.5729 23.0592 6.93712 16.0295 8.2482C8.99987 9.55929 4.36406 16.3208 5.67515 23.3504Z" fill="#F5C2D0"/>
<g id="Group 34556">
<ellipse id="Ellipse 218" cx="1.21199" cy="1.16438" rx="1.21199" ry="1.16438" transform="matrix(9.68485e-09 -1 -1 -9.68485e-09 15.3984 23.446)" fill="#334155"/>
<ellipse id="Ellipse 221" cx="1.22" cy="1.165" rx="1.22" ry="1.165" transform="matrix(-4.91277e-08 1 1 4.91277e-08 21.0625 20.9417)" fill="#334155"/>
</g>
<circle id="Ellipse 219" cx="3.23695" cy="3.23695" r="3.23695" transform="matrix(-0.983048 0.183347 0.183347 0.983048 8.28906 18.7026)" fill="#F5C2D0"/>
<circle id="Ellipse 220" cx="3.23695" cy="3.23695" r="3.23695" transform="matrix(-0.983048 0.183347 0.183347 0.983048 33.8047 18.7024)" fill="#F5C2D0"/>
<g id="Group 33736">
<path id="Intersect" fill-rule="evenodd" clip-rule="evenodd" d="M5.43837 17.7107C7.37149 19.0411 9.81315 19.5941 12.2599 19.0447C14.7441 18.4869 16.7377 16.9039 17.9097 14.8287C19.7822 18.1291 23.6027 19.9741 27.4357 19.1134C28.8135 18.804 30.0404 18.1792 31.0599 17.3301C31.0215 17.1078 30.9774 16.8853 30.9274 16.6628C29.3322 9.55888 22.383 5.07013 15.4059 6.63685C9.96555 7.85847 6.11464 12.4011 5.43837 17.7107Z" fill="#1E293B"/>
</g>
<g id="Group 34498">
<path id="Subtract" fill-rule="evenodd" clip-rule="evenodd" d="M27.7171 10.4667L8.84452 10.2881C9.29127 6.63782 13.3858 3.80728 18.3425 3.85419C23.2993 3.9011 27.3395 6.80861 27.7171 10.4667Z" fill="#FACC15"/>
<rect id="Rectangle 6290" x="5.69531" y="10.2583" width="25.1647" height="3.14559" rx="1.04853" transform="rotate(0.542194 5.69531 10.2583)" fill="#FACC15"/>
<path id="Rectangle 6293" d="M15.1734 6.15472C15.1898 4.41754 16.6114 3.0226 18.3486 3.03904C20.0857 3.05548 21.4807 4.47707 21.4642 6.21425L21.4246 10.4082L15.1337 10.3486L15.1734 6.15472Z" fill="#EAB308"/>
</g>
</g>
</svg>
