<?xml version="1.0"?>
<svg viewBox="0 0 100 100" xmlns="http://www.w3.org/2000/svg" xmlns:svg="http://www.w3.org/2000/svg" version="1.1" xml:space="preserve">
 <desc>Created with Fabric.js 5.3.0</desc>
 <defs>
  <linearGradient id="svg_10" x1="0.5" x2="0.5" y1="0" y2="1">
   <stop offset="0%" stop-color="rgb(16,185,129)"/>
   <stop offset="99.5%" stop-color="rgb(163,230,53)"/>
  </linearGradient>
 </defs>
 <g class="layer">
  <title>Layer 1</title>
  <linearGradient id="SVGID_98631" x1="0.5" x2="0.5" y1="0" y2="1">
   <stop offset="0%" stop-color="rgb(16,185,129)"/>
   <stop offset="99.5%" stop-color="rgb(163,230,53)"/>
  </linearGradient>
  <g id="svg_11">
   <path d="m86.07,50.82l6.14,-6.12c4.93,-4.9 7.65,-11.43 7.65,-18.37c0,-6.94 -2.72,-13.46 -7.65,-18.36c-4.91,-4.92 -11.46,-7.61 -18.42,-7.61c-6.95,0 -13.5,2.69 -18.43,7.61c-1.81,1.82 -3.35,3.88 -4.56,6.14l-6.15,-6.14c-4.93,-4.92 -11.46,-7.61 -18.43,-7.61c-6.95,0 -13.51,2.69 -18.42,7.61c-4.91,4.9 -7.63,11.43 -7.63,18.36c0,6.95 2.72,13.47 7.63,18.37c1.84,1.83 3.91,3.37 6.14,4.56l-6.14,6.12c-4.91,4.9 -7.63,11.43 -7.63,18.38c0,6.95 2.72,13.46 7.63,18.36c4.91,4.92 11.46,7.62 18.42,7.62c6.97,0 13.52,-2.7 18.43,-7.62c1.83,-1.8 3.36,-3.88 4.57,-6.12l6.14,6.12c4.93,4.92 11.48,7.62 18.43,7.62c6.96,0 13.5,-2.7 18.43,-7.62c10.16,-10.12 10.16,-26.6 0,-36.73c-1.85,-1.83 -3.92,-3.37 -6.15,-4.56m-26.27,-38.43c3.74,-3.72 8.71,-5.78 13.99,-5.78c5.27,0 10.25,2.05 13.99,5.78c3.73,3.72 5.79,8.67 5.79,13.93c0,5.27 -2.06,10.22 -5.79,13.94l-8.2,8.17c-1.89,-0.42 -3.82,-0.67 -5.8,-0.67c-0.68,0 -1.35,0.05 -2.01,0.09l11.8,-11.76c2.62,-2.6 4.05,-6.08 4.05,-9.77c0,-3.68 -1.43,-7.15 -4.05,-9.77c-2.62,-2.59 -6.09,-4.04 -9.79,-4.04c-3.7,0 -7.17,1.45 -9.8,4.04c-1.98,1.97 -3.22,4.4 -3.75,6.95l-4.71,-4.7c0.99,-2.38 2.43,-4.58 4.27,-6.41m8.64,19.28c-2.95,-2.96 -2.95,-7.75 0,-10.69c1.43,-1.43 3.33,-2.2 5.36,-2.2c2.03,0 3.93,0.77 5.35,2.2c1.43,1.43 2.21,3.34 2.21,5.34c0,2.01 -0.78,3.91 -2.21,5.35l-6.15,6.12c-1.21,-2.24 -2.73,-4.32 -4.56,-6.12m-56.19,8.59c-3.74,-3.71 -5.8,-8.67 -5.8,-13.94c0,-5.28 2.06,-10.22 5.8,-13.93c3.74,-3.72 8.7,-5.78 13.98,-5.78c5.29,0 10.25,2.05 13.98,5.78l23.78,23.7l0.01,0c2.28,2.27 3.98,5.09 4.91,8.13l1.18,3.84c-2.15,0.29 -4.26,0.84 -6.25,1.66c-0.08,-3.43 -1.41,-6.84 -4.03,-9.46c-2.6,-2.61 -6.09,-4.04 -9.79,-4.04c-3.7,0 -7.17,1.43 -9.8,4.04c-3.74,3.72 -8.69,5.78 -13.98,5.78c-5.28,0 -10.24,-2.05 -13.98,-5.78m45.32,9.77c0,1.93 -0.74,3.87 -2.21,5.34c-1.43,1.43 -3.33,2.23 -5.36,2.23c-2.03,0 -3.93,-0.8 -5.36,-2.23c-2.95,-2.95 -2.95,-7.74 0,-10.68c1.43,-1.42 3.33,-2.2 5.36,-2.2c2.02,0 3.93,0.78 5.36,2.2c1.47,1.47 2.21,3.41 2.21,5.34m-17.36,37.66c-3.74,3.72 -8.69,5.78 -13.98,5.78c-5.28,0 -10.24,-2.06 -13.98,-5.78c-3.74,-3.72 -5.8,-8.67 -5.8,-13.95c0,-5.28 2.06,-10.22 5.8,-13.95l8.18,-8.16c1.89,0.42 3.83,0.66 5.8,0.66c0.67,0 1.35,-0.05 2.01,-0.1l-11.8,11.77c-5.4,5.39 -5.4,14.15 0,19.54c2.62,2.59 6.1,4.03 9.8,4.03c3.7,0 7.19,-1.44 9.81,-4.03c1.93,-1.93 3.2,-4.32 3.75,-6.94l4.71,4.7c-0.99,2.38 -2.44,4.57 -4.29,6.42m-8.62,-19.28c1.43,1.42 2.21,3.31 2.21,5.34c0,2.02 -0.78,3.91 -2.21,5.33c-1.43,1.43 -3.34,2.21 -5.37,2.21c-2.01,0 -3.93,-0.78 -5.36,-2.21c-2.95,-2.94 -2.95,-7.72 0,-10.67l6.15,-6.14c1.21,2.26 2.75,4.32 4.57,6.14m56.19,19.28c-3.74,3.72 -8.72,5.78 -13.99,5.78c-5.28,0 -10.25,-2.05 -13.99,-5.78l-23.79,-23.71c-2.28,-2.27 -3.97,-5.08 -4.9,-8.14l-1.18,-3.82c2.16,-0.31 4.24,-0.86 6.24,-1.68c0.08,3.43 1.41,6.84 4.03,9.46c2.62,2.61 6.11,4.05 9.8,4.05c3.7,0 7.19,-1.44 9.79,-4.05c3.74,-3.73 8.71,-5.78 13.99,-5.78c5.27,0 10.25,2.05 13.99,5.78c7.7,7.68 7.7,20.19 0,27.89" fill="url(#svg_10)" fill-rule="nonzero" id="svg_4" stroke-dashoffset="0" stroke-miterlimit="10"/>
   <g id="svg_5" transform="matrix(0.386396 0 0 -0.385238 136.386 506.911)">
    <linearGradient id="SVGID_98632" x1="0.5" x2="0.5" y1="0" y2="1">
     <stop offset="0%" stop-color="rgb(16,185,129)"/>
     <stop offset="99.5%" stop-color="rgb(163,230,53)"/>
    </linearGradient>
    <path d="m324.22,3052.75c-9.59,0 -18.57,-3.74 -25.36,-10.52c-5.93,-5.89 -13.21,-10.32 -21.08,-12.76l-12.93,-3.94l34.01,-34.02c6.79,-6.77 15.77,-10.47 25.36,-10.47c9.58,0 18.56,3.7 25.35,10.47c13.99,13.98 13.99,36.74 0,50.72c-6.78,6.78 -15.76,10.52 -25.35,10.52zm13.85,-49.72c-3.7,-3.71 -8.6,-5.74 -13.85,-5.74c-5.24,0 -10.16,2.03 -13.86,5.74l-15.93,15.87c5.85,3.14 11.22,7.12 15.93,11.82c3.7,3.7 8.62,5.77 13.86,5.77c5.25,0 10.16,-2.07 13.85,-5.77c7.64,-7.64 7.64,-20.06 0,-27.69" fill="url(#SVGID_98632)" fill-rule="nonzero" id="svg_6" stroke-dashoffset="0" stroke-miterlimit="10" transform="translate(-476.366 -1892.41)"/>
   </g>
   <g id="svg_7" transform="matrix(0.386396 0 0 -0.385238 97.842 459.424)">
    <linearGradient id="SVGID_98633" x1="0.5" x2="0.5" y1="0" y2="1">
     <stop offset="0%" stop-color="rgb(16,185,129)"/>
     <stop offset="99.5%" stop-color="rgb(163,230,53)"/>
    </linearGradient>
    <path d="m226.45,3114.62c5.93,5.91 13.25,10.34 21.09,12.72l12.92,4l-34.01,34.01c-6.74,6.73 -15.76,10.48 -25.34,10.48c-9.56,0 -18.58,-3.75 -25.36,-10.48c-6.74,-6.8 -10.48,-15.78 -10.48,-25.37c0,-9.58 3.74,-18.6 10.52,-25.36c6.74,-6.77 15.76,-10.51 25.32,-10.51c9.58,0 18.6,3.74 25.34,10.51zm-44.94,25.36c0,5.24 2.04,10.17 5.74,13.87c3.69,3.7 8.66,5.71 13.86,5.71c5.24,0 10.18,-2.01 13.89,-5.71l15.89,-15.94c-5.82,-3.12 -11.18,-7.11 -15.89,-11.78c-3.74,-3.74 -8.65,-5.77 -13.89,-5.77c-5.2,0 -10.12,2.03 -13.86,5.73c-3.7,3.7 -5.74,8.66 -5.74,13.89" fill="url(#SVGID_98633)" fill-rule="nonzero" id="svg_8" stroke-dashoffset="0" stroke-miterlimit="10" transform="translate(-376.773 -2015.48)"/>
   </g>
  </g>
 </g>
</svg>