<svg width="180" height="64" viewBox="0 0 180 64" fill="none" xmlns="http://www.w3.org/2000/svg">
<g id="Mask group" opacity="0.3">
<mask id="mask0_20316_8939" style="mask-type:alpha" maskUnits="userSpaceOnUse" x="0" y="-27" width="180" height="119">
<g id="Group 34636">
<g id="Group 34635">
<g id="Group 34633">
<path id="Union" fill-rule="evenodd" clip-rule="evenodd" d="M125.147 2.75025C118.284 9.55598 118.284 20.5902 125.147 27.396C132.01 34.2017 143.137 34.2017 150 27.396L150.001 27.3949L150.002 27.396C156.865 34.2017 167.992 34.2017 174.855 27.396C181.718 20.5902 181.718 9.55598 174.855 2.75025L174.854 2.74921C181.716 -4.0566 181.715 -15.0901 174.853 -21.8955C167.99 -28.7008 156.864 -28.7012 150.001 -21.8965C143.138 -28.7012 132.012 -28.7008 125.149 -21.8955C118.287 -15.0901 118.286 -4.0566 125.148 2.74921L125.147 2.75025Z" fill="white"/>
<path id="Union_2" fill-rule="evenodd" clip-rule="evenodd" d="M65.1472 2.75025C58.2843 9.55598 58.2843 20.5902 65.1472 27.396C72.0101 34.2017 83.1371 34.2017 90 27.396L90.0011 27.3949L90.0021 27.396C96.865 34.2017 107.992 34.2017 114.855 27.396C121.718 20.5902 121.718 9.55598 114.855 2.75025L114.854 2.74921C121.716 -4.0566 121.715 -15.0901 114.853 -21.8955C107.99 -28.7008 96.8641 -28.7012 90.0011 -21.8965C83.1381 -28.7012 72.0118 -28.7008 65.1493 -21.8955C58.2867 -15.0901 58.2864 -4.0566 65.1482 2.74921L65.1472 2.75025Z" fill="white"/>
<path id="Union_3" fill-rule="evenodd" clip-rule="evenodd" d="M5.14718 2.75025C-1.71573 9.55598 -1.71573 20.5902 5.14719 27.396C12.0101 34.2017 23.1371 34.2017 30 27.396L30.0011 27.3949L30.0021 27.396C36.865 34.2017 47.992 34.2017 54.8549 27.396C61.7178 20.5902 61.7178 9.55598 54.8549 2.75025L54.8539 2.74921C61.7157 -4.0566 61.7154 -15.0901 54.8528 -21.8955C47.9903 -28.7008 36.8641 -28.7012 30.0011 -21.8965C23.1381 -28.7012 12.0118 -28.7008 5.14928 -21.8955C-1.71329 -15.0901 -1.71364 -4.0566 5.14823 2.74921L5.14718 2.75025Z" fill="white"/>
</g>
</g>
<g id="Group 34634">
<g id="Group 34633_2">
<path id="Union_4" fill-rule="evenodd" clip-rule="evenodd" d="M125.147 62.2493C118.284 69.055 118.284 80.0893 125.147 86.895C132.01 93.7007 143.137 93.7007 150 86.895L150.001 86.8939L150.002 86.895C156.865 93.7007 167.992 93.7007 174.855 86.895C181.718 80.0893 181.718 69.055 174.855 62.2493L174.854 62.2482C181.716 55.4424 181.715 44.4089 174.853 37.6036C167.99 30.7982 156.864 30.7978 150.001 37.6025C143.138 30.7978 132.012 30.7982 125.149 37.6036C118.287 44.4089 118.286 55.4424 125.148 62.2482L125.147 62.2493Z" fill="white"/>
<path id="Union_5" fill-rule="evenodd" clip-rule="evenodd" d="M65.1472 62.2493C58.2843 69.055 58.2843 80.0893 65.1472 86.895C72.0101 93.7007 83.1371 93.7007 90 86.895L90.0011 86.8939L90.0021 86.895C96.865 93.7007 107.992 93.7007 114.855 86.895C121.718 80.0893 121.718 69.055 114.855 62.2493L114.854 62.2482C121.716 55.4424 121.715 44.4089 114.853 37.6036C107.99 30.7982 96.8641 30.7978 90.0011 37.6025C83.1381 30.7978 72.0118 30.7982 65.1493 37.6036C58.2867 44.4089 58.2864 55.4424 65.1482 62.2482L65.1472 62.2493Z" fill="white"/>
<path id="Union_6" fill-rule="evenodd" clip-rule="evenodd" d="M5.14718 62.2493C-1.71573 69.055 -1.71573 80.0893 5.14719 86.895C12.0101 93.7007 23.1371 93.7007 30 86.895L30.0011 86.8939L30.0021 86.895C36.865 93.7007 47.992 93.7007 54.8549 86.895C61.7178 80.0893 61.7178 69.055 54.8549 62.2493L54.8539 62.2482C61.7157 55.4424 61.7154 44.4089 54.8528 37.6036C47.9903 30.7982 36.8641 30.7978 30.0011 37.6025C23.1381 30.7978 12.0118 30.7982 5.14928 37.6036C-1.71329 44.4089 -1.71364 55.4424 5.14823 62.2482L5.14718 62.2493Z" fill="white"/>
</g>
</g>
</g>
</mask>
<g mask="url(#mask0_20316_8939)">
<rect id="Rectangle 22565" y="-27" width="180" height="119" fill="url(#paint0_linear_20316_8939)"/>
</g>
</g>
<defs>
<linearGradient id="paint0_linear_20316_8939" x1="90" y1="-27" x2="90" y2="92" gradientUnits="userSpaceOnUse">
<stop stop-color="white" stop-opacity="0"/>
<stop offset="1" stop-color="white"/>
</linearGradient>
</defs>
</svg>
