<svg width="810" height="253" viewBox="0 0 810 253" fill="none" xmlns="http://www.w3.org/2000/svg">
<rect x="93.8281" y="73.9248" width="58.3964" height="58.3964" rx="14.0151" fill="#E9D5FF"/>
<g clip-path="url(#clip0_4903_172662)">
<rect x="111.734" y="95.917" width="21.6797" height="14.0151" rx="2.62784" fill="#F8FAFC"/>
<path d="M121.168 103.788C122.098 104.478 123.371 104.478 124.301 103.788L132.778 97.4963C133.456 96.9933 133.1 95.917 132.256 95.917H113.213C112.369 95.917 112.013 96.9933 112.691 97.4963L121.168 103.788Z" fill="#A855F7"/>
</g>
<path d="M118.13 215.338L98.2797 226.682L103.951 236.609C104.613 236.231 112.515 232.242 138.832 219.308C134.294 211.368 123.14 213.353 118.13 215.338Z" fill="black"/>
<rect x="60.3906" y="169.507" width="31.2224" height="68.9188" transform="rotate(-29.9324 60.3906 169.507)" fill="#4484FF"/>
<path d="M118.201 126.063C116.898 128.584 113.388 130.23 111.797 130.738L102.65 130.713L105.852 142.699C108.483 142.531 115.185 141.86 120.951 140.517C128.158 138.839 128.12 138.231 131.646 136.178C137.64 132.687 136.441 130.386 133.726 130.559L123.406 131.217L123.405 131.217C122.191 131.295 119.157 131.488 121.43 128.905C123.703 126.322 119.83 122.912 118.201 126.063Z" fill="#F5C2D0"/>
<path d="M52.8583 181.32C49.8613 173.713 47.7505 165.786 46.5677 157.696L79.3806 157.866L85.5987 194.134L58.5503 195.767L52.8583 181.32Z" fill="#4484FF"/>
<path d="M33.6015 212.615L27.5191 190.427L20.6478 191.673C18.2517 192.107 16.5988 194.432 16.9519 196.841C17.7053 201.981 19.1678 212.249 21.7551 230.921C30.7432 229.29 33.9118 217.973 33.6015 212.615Z" fill="black"/>
<path d="M34.3229 215.328L25.6698 188.544L70.4185 177.136C76.2867 175.64 82.2508 179.208 83.7071 185.086L85.286 191.459C86.7353 197.31 83.1677 203.227 77.3176 204.676L34.3229 215.328Z" fill="#4484FF"/>
<path d="M39.8857 74.3811C42.3315 86.5668 53.7215 94.9408 65.9072 92.4951C83.7562 91.2199 84.9184 75.557 84.7882 70.1911C84.7592 68.994 84.4489 67.8489 83.9265 66.7714C81.1319 61.0077 70.7868 42.2548 57.0504 48.3666C44.8647 50.8123 37.44 62.1953 39.8857 74.3811Z" fill="#F5C2D0"/>
<path d="M84.7501 66.5857C83.5298 66.7858 82.002 62.2377 81.0074 61.4534L80.3336 68.6697L80.9863 84.7031C85.4139 79.5346 86.56 69.1032 86.4128 67.8739C86.2532 66.5406 85.6217 66.4428 84.7501 66.5857Z" fill="#F5C2D0"/>
<path fill-rule="evenodd" clip-rule="evenodd" d="M72.6089 50.5641C67.5508 52.3643 58.6094 56.2532 52.9494 66.2635C47.414 76.0533 48.0716 80.7789 49.0357 87.7075C49.0947 88.1316 49.1549 88.564 49.2149 89.0063C44.2133 85.8317 40.4653 80.6995 39.2075 74.4327C36.7618 62.247 44.6576 50.3858 56.8434 47.9401C62.4652 46.8118 68.0179 47.8845 72.6089 50.5641Z" fill="#0F172A"/>
<ellipse cx="1.60745" cy="1.61402" rx="1.60745" ry="1.61402" transform="matrix(-0.90602 0.423235 0.423235 0.90602 73.9688 60.873)" fill="#334155"/>
<circle cx="5.62606" cy="5.62606" r="5.62606" transform="matrix(-0.980447 0.196781 0.196781 0.980447 53.5 66.9746)" fill="#F5C2D0"/>
<rect x="53.0547" y="84.5537" width="15.2082" height="17.5864" rx="7.60409" transform="rotate(1.73691 53.0547 84.5537)" fill="#F5C2D0"/>
<mask id="path-16-outside-1_4903_172662" maskUnits="userSpaceOnUse" x="28.7905" y="30.5514" width="45.1851" height="34.8322" fill="black">
<rect fill="white" x="28.7905" y="30.5514" width="45.1851" height="34.8322"/>
<path fill-rule="evenodd" clip-rule="evenodd" d="M68.6102 46.1997L39.018 60.355C36.9229 54.3159 41.1487 46.7662 48.9211 43.0483C56.6936 39.3304 65.2234 40.7786 68.6102 46.1997Z"/>
</mask>
<path fill-rule="evenodd" clip-rule="evenodd" d="M68.6102 46.1997L39.018 60.355C36.9229 54.3159 41.1487 46.7662 48.9211 43.0483C56.6936 39.3304 65.2234 40.7786 68.6102 46.1997Z" fill="#FACC15"/>
<path d="M39.018 60.355L35.9391 61.4231L37.1344 64.8685L40.4243 63.2948L39.018 60.355ZM68.6102 46.1997L70.0165 49.1396L73.3064 47.5659L71.3741 44.473L68.6102 46.1997ZM40.4243 63.2948L70.0165 49.1396L67.204 43.2598L37.6117 57.4151L40.4243 63.2948ZM42.0969 59.2869C40.7612 55.4368 43.3705 49.316 50.3274 45.9882L47.5148 40.1085C38.9269 44.2165 33.0847 53.1951 35.9391 61.4231L42.0969 59.2869ZM50.3274 45.9882C57.2843 42.6604 63.6871 44.4703 65.8464 47.9264L71.3741 44.473C66.7596 37.0869 56.1028 36.0005 47.5148 40.1085L50.3274 45.9882Z" fill="#EAB308" mask="url(#path-16-outside-1_4903_172662)"/>
<rect x="34.0781" y="62.7158" width="43.7382" height="5.46727" rx="1.82242" transform="rotate(-25.5639 34.0781 62.7158)" fill="#FACC15"/>
<path d="M45.7271 104.338C49.4425 95.5911 56.2452 95.5353 59.3133 96.0991L65.2294 130.872L98.8096 128.926L101.731 148.137C86.461 149.147 51.255 159.73 40.8198 147.714C34.0586 139.928 41.0829 115.271 45.7271 104.338Z" fill="#4484FF"/>
<path fill-rule="evenodd" clip-rule="evenodd" d="M86.3771 126.042C86.3716 125.999 86.3661 125.957 86.3604 125.915C83.7679 106.413 71.9527 91.8956 59.9705 93.4885C45.794 93.9982 40.3954 112.118 42.9555 131.581L42.9553 131.581L46.7201 159.9L90.1115 154.132L86.3771 126.042Z" fill="#4484FF"/>
<path d="M53.5714 102.215C57.4383 93.5476 63.9487 93.9818 67.0624 94.6073L73.1298 129.131L107.406 125.395L111.057 150.402C95.5214 151.103 58.6268 157.694 48.1393 145.472C41.3442 137.553 48.7378 113.05 53.5714 102.215Z" fill="#4484FF"/>
<rect x="55.0156" y="149" width="35.2812" height="24.3319" fill="#4484FF"/>
<rect x="258.219" y="73.9238" width="58.3964" height="58.3964" rx="14.0151" fill="#A5F3FC"/>
<rect x="272.82" y="102.041" width="8.65133" height="10.8142" rx="1.21659" fill="#06B6D4"/>
<rect x="282.555" y="97.7158" width="8.65133" height="15.1398" rx="1.21659" fill="#06B6D4"/>
<rect x="292.289" y="93.3896" width="8.65133" height="19.4655" rx="1.21659" fill="#06B6D4"/>
<path d="M282.521 215.339L262.67 226.683L268.342 236.61C269.004 236.232 276.906 232.243 303.223 219.309C298.685 211.369 287.531 213.354 282.521 215.339Z" fill="black"/>
<rect x="224.781" y="169.508" width="31.2224" height="68.9188" transform="rotate(-29.9324 224.781 169.508)" fill="#4484FF"/>
<path d="M282.592 126.061C281.289 128.582 277.779 130.228 276.187 130.736L267.04 130.711L270.243 142.697C272.873 142.529 279.576 141.858 285.342 140.515C292.549 138.837 292.51 138.229 296.037 136.176C302.03 132.686 300.831 130.384 298.117 130.557L287.796 131.215L287.796 131.215C286.582 131.293 283.547 131.486 285.82 128.903C288.094 126.32 284.22 122.91 282.592 126.061Z" fill="#F5C2D0"/>
<path d="M217.249 181.319C214.252 173.712 212.141 165.785 210.958 157.695L243.771 157.865L249.989 194.133L222.941 195.766L217.249 181.319Z" fill="#4484FF"/>
<path d="M197.992 212.614L191.91 190.426L185.038 191.672C182.642 192.106 180.989 194.431 181.343 196.84C182.096 201.98 183.558 212.248 186.146 230.92C195.134 229.289 198.302 217.972 197.992 212.614Z" fill="black"/>
<path d="M198.713 215.327L190.06 188.543L234.809 177.135C240.677 175.639 246.641 179.207 248.098 185.085L249.677 191.458C251.126 197.309 247.558 203.226 241.708 204.675L198.713 215.327Z" fill="#4484FF"/>
<path d="M204.261 74.3791C206.706 86.5649 218.097 94.9389 230.282 92.4931C248.131 91.218 249.293 75.5551 249.163 70.1891C249.134 68.9921 248.824 67.8469 248.302 66.7695C245.507 61.0057 235.162 42.2528 221.425 48.3647C209.24 50.8104 201.815 62.1934 204.261 74.3791Z" fill="#F5C2D0"/>
<path d="M249.133 66.5838C247.913 66.7839 246.385 62.2358 245.39 61.4515L244.716 68.6677L245.369 84.7011C249.797 79.5326 250.943 69.1012 250.796 67.872C250.636 66.5387 250.004 66.4408 249.133 66.5838Z" fill="#F5C2D0"/>
<path fill-rule="evenodd" clip-rule="evenodd" d="M236.992 50.5606C231.934 52.3606 222.991 56.2494 217.331 66.2605C211.795 76.0502 212.453 80.7758 213.417 87.7044C213.476 88.1281 213.536 88.56 213.596 89.0018C208.596 85.8272 204.849 80.6956 203.591 74.4297C201.145 62.2439 209.041 50.3828 221.227 47.937C226.848 46.8088 232.401 47.8813 236.992 50.5606Z" fill="#0F172A"/>
<ellipse cx="1.60745" cy="1.61402" rx="1.60745" ry="1.61402" transform="matrix(-0.90602 0.423235 0.423235 0.90602 238.344 60.8711)" fill="#334155"/>
<circle cx="5.62606" cy="5.62606" r="5.62606" transform="matrix(-0.980447 0.196781 0.196781 0.980447 217.883 66.9736)" fill="#F5C2D0"/>
<rect x="217.438" y="84.5508" width="15.2082" height="17.5864" rx="7.60409" transform="rotate(1.73691 217.438 84.5508)" fill="#F5C2D0"/>
<mask id="path-39-outside-2_4903_172662" maskUnits="userSpaceOnUse" x="193.181" y="30.5505" width="45.1851" height="34.8322" fill="black">
<rect fill="white" x="193.181" y="30.5505" width="45.1851" height="34.8322"/>
<path fill-rule="evenodd" clip-rule="evenodd" d="M233.001 46.1987L203.409 60.354C201.314 54.315 205.539 46.7653 213.312 43.0474C221.084 39.3295 229.614 40.7776 233.001 46.1987Z"/>
</mask>
<path fill-rule="evenodd" clip-rule="evenodd" d="M233.001 46.1987L203.409 60.354C201.314 54.315 205.539 46.7653 213.312 43.0474C221.084 39.3295 229.614 40.7776 233.001 46.1987Z" fill="#FACC15"/>
<path d="M203.409 60.354L200.33 61.4221L201.525 64.8676L204.815 63.2939L203.409 60.354ZM233.001 46.1987L234.407 49.1386L237.697 47.5649L235.765 44.472L233.001 46.1987ZM204.815 63.2939L234.407 49.1386L231.595 43.2589L202.002 57.4141L204.815 63.2939ZM206.487 59.2859C205.152 55.4358 207.761 49.315 214.718 45.9872L211.905 40.1075C203.317 44.2155 197.475 53.1941 200.33 61.4221L206.487 59.2859ZM214.718 45.9872C221.675 42.6594 228.078 44.4693 230.237 47.9254L235.765 44.472C231.15 37.0859 220.493 35.9995 211.905 40.1075L214.718 45.9872Z" fill="#EAB308" mask="url(#path-39-outside-2_4903_172662)"/>
<rect x="198.469" y="62.7148" width="43.7382" height="5.46727" rx="1.82242" transform="rotate(-25.5639 198.469 62.7148)" fill="#FACC15"/>
<path d="M210.118 104.337C213.833 95.5901 220.636 95.5343 223.704 96.0981L229.62 130.871L263.2 128.925L266.121 148.136C250.852 149.146 215.646 159.73 205.21 147.713C198.449 139.927 205.474 115.27 210.118 104.337Z" fill="#4484FF"/>
<path fill-rule="evenodd" clip-rule="evenodd" d="M250.768 126.04C250.762 125.997 250.757 125.955 250.751 125.913C248.159 106.411 236.343 91.8937 224.361 93.4866C210.185 93.9963 204.786 112.116 207.346 131.579L207.346 131.579L211.111 159.899L254.502 154.13L250.768 126.04Z" fill="#4484FF"/>
<path d="M217.962 102.213C221.829 93.5456 228.339 93.9799 231.453 94.6054L237.52 129.129L271.796 125.393L275.448 150.4C259.912 151.102 223.017 157.692 212.53 145.47C205.735 137.551 213.128 113.048 217.962 102.213Z" fill="#4484FF"/>
<rect x="219.406" y="148.998" width="35.2812" height="24.3319" fill="#4484FF"/>
<rect x="422.453" y="73.9248" width="58.3964" height="58.3964" rx="14.0151" fill="#FBCFE8"/>
<path fill-rule="evenodd" clip-rule="evenodd" d="M441.761 102.957C441.772 103.264 441.899 103.556 442.117 103.774L452.592 114.249C453.067 114.725 453.838 114.725 454.313 114.249L462.437 106.125C462.912 105.65 462.912 104.879 462.437 104.404L451.962 93.9291C451.744 93.7114 451.452 93.5843 451.145 93.5735L442.724 93.2775C442.019 93.2527 441.441 93.831 441.465 94.5361L441.761 102.957ZM446.888 98.7016C447.492 98.0975 447.492 97.118 446.888 96.5138C446.284 95.9097 445.305 95.9097 444.7 96.5138C444.096 97.118 444.096 98.0975 444.7 98.7016C445.305 99.3058 446.284 99.3058 446.888 98.7016Z" fill="#EC4899"/>
<path d="M446.755 215.337L426.905 226.682L432.576 236.608C433.238 236.23 441.14 232.241 467.457 219.307C462.919 211.367 451.765 213.352 446.755 215.337Z" fill="black"/>
<rect x="389.016" y="169.506" width="31.2224" height="68.9188" transform="rotate(-29.9324 389.016 169.506)" fill="#4484FF"/>
<path d="M446.826 126.062C445.523 128.583 442.013 130.229 440.422 130.737L431.275 130.712L434.477 142.698C437.108 142.53 443.81 141.859 449.576 140.516C456.783 138.838 456.745 138.23 460.271 136.177C466.265 132.686 465.066 130.385 462.351 130.558L452.031 131.216L452.03 131.216C450.816 131.294 447.782 131.487 450.055 128.904C452.328 126.321 448.455 122.911 446.826 126.062Z" fill="#F5C2D0"/>
<path d="M381.483 181.32C378.486 173.713 376.376 165.786 375.193 157.696L408.006 157.866L414.224 194.134L387.175 195.767L381.483 181.32Z" fill="#4484FF"/>
<path d="M362.226 212.615L356.144 190.427L349.273 191.673C346.877 192.107 345.224 194.432 345.577 196.841C346.33 201.981 347.793 212.249 350.38 230.921C359.368 229.29 362.537 217.973 362.226 212.615Z" fill="black"/>
<path d="M362.948 215.328L354.295 188.544L399.044 177.136C404.912 175.64 410.876 179.208 412.332 185.086L413.911 191.459C415.36 197.31 411.793 203.227 405.943 204.676L362.948 215.328Z" fill="#4484FF"/>
<path d="M368.503 74.3791C370.949 86.5649 382.339 94.9389 394.524 92.4931C412.373 91.218 413.536 75.5551 413.405 70.1891C413.376 68.9921 413.066 67.8469 412.544 66.7695C409.749 61.0057 399.404 42.2528 385.668 48.3647C373.482 50.8104 366.057 62.1934 368.503 74.3791Z" fill="#F5C2D0"/>
<path d="M413.383 66.5847C412.163 66.7848 410.635 62.2368 409.64 61.4524L408.966 68.6687L409.619 84.7021C414.047 79.5336 415.193 69.1022 415.046 67.8729C414.886 66.5397 414.254 66.4418 413.383 66.5847Z" fill="#F5C2D0"/>
<path fill-rule="evenodd" clip-rule="evenodd" d="M401.234 50.5612C396.176 52.3614 387.234 56.2503 381.574 66.2606C376.039 76.0504 376.697 80.776 377.661 87.7045C377.72 88.1286 377.78 88.561 377.84 89.0033C372.838 85.8288 369.09 80.6966 367.833 74.4298C365.387 62.2441 373.283 50.3829 385.468 47.9372C391.09 46.8088 396.643 47.8816 401.234 50.5612Z" fill="#0F172A"/>
<ellipse cx="1.60745" cy="1.61402" rx="1.60745" ry="1.61402" transform="matrix(-0.90602 0.423235 0.423235 0.90602 402.594 60.8721)" fill="#334155"/>
<circle cx="5.62606" cy="5.62606" r="5.62606" transform="matrix(-0.980447 0.196781 0.196781 0.980447 382.125 66.9727)" fill="#F5C2D0"/>
<rect x="381.68" y="84.5508" width="15.2082" height="17.5864" rx="7.60409" transform="rotate(1.73691 381.68 84.5508)" fill="#F5C2D0"/>
<mask id="path-60-outside-3_4903_172662" maskUnits="userSpaceOnUse" x="357.416" y="30.5514" width="45.1851" height="34.8322" fill="black">
<rect fill="white" x="357.416" y="30.5514" width="45.1851" height="34.8322"/>
<path fill-rule="evenodd" clip-rule="evenodd" d="M397.235 46.1997L367.643 60.355C365.548 54.3159 369.774 46.7662 377.546 43.0483C385.319 39.3304 393.848 40.7786 397.235 46.1997Z"/>
</mask>
<path fill-rule="evenodd" clip-rule="evenodd" d="M397.235 46.1997L367.643 60.355C365.548 54.3159 369.774 46.7662 377.546 43.0483C385.319 39.3304 393.848 40.7786 397.235 46.1997Z" fill="#FACC15"/>
<path d="M367.643 60.355L364.564 61.4231L365.759 64.8685L369.049 63.2948L367.643 60.355ZM397.235 46.1997L398.641 49.1396L401.931 47.5659L399.999 44.473L397.235 46.1997ZM369.049 63.2948L398.641 49.1396L395.829 43.2598L366.237 57.4151L369.049 63.2948ZM370.722 59.2869C369.386 55.4368 371.996 49.316 378.952 45.9882L376.14 40.1085C367.552 44.2165 361.71 53.1951 364.564 61.4231L370.722 59.2869ZM378.952 45.9882C385.909 42.6604 392.312 44.4703 394.471 47.9264L399.999 44.473C395.385 37.0869 384.728 36.0005 376.14 40.1085L378.952 45.9882Z" fill="#EAB308" mask="url(#path-60-outside-3_4903_172662)"/>
<rect x="362.703" y="62.7158" width="43.7382" height="5.46727" rx="1.82242" transform="rotate(-25.5639 362.703 62.7158)" fill="#FACC15"/>
<path d="M374.352 104.338C378.068 95.5911 384.87 95.5353 387.938 96.0991L393.854 130.872L427.435 128.926L430.356 148.137C415.086 149.147 379.88 159.73 369.445 147.714C362.684 139.928 369.708 115.271 374.352 104.338Z" fill="#4484FF"/>
<path fill-rule="evenodd" clip-rule="evenodd" d="M415.002 126.041C414.997 125.998 414.991 125.956 414.985 125.914C412.393 106.412 400.578 91.8946 388.596 93.4876C374.419 93.9973 369.02 112.117 371.581 131.58L371.58 131.58L375.345 159.899L418.736 154.131L415.002 126.041Z" fill="#4484FF"/>
<path d="M382.196 102.214C386.063 93.5466 392.574 93.9808 395.687 94.6064L401.755 129.13L436.031 125.394L439.682 150.401C424.146 151.103 387.252 157.693 376.764 145.471C369.969 137.552 377.363 113.049 382.196 102.214Z" fill="#4484FF"/>
<rect x="383.641" y="148.999" width="35.2812" height="24.3319" fill="#4484FF"/>
<path d="M784 13C784 10.2386 786.239 8 789 8C791.761 8 794 10.2386 794 13V215H784V13Z" fill="#510A09"/>
<rect x="768" y="8" width="42" height="117" rx="4" fill="#EAB308"/>
<circle cx="788.5" cy="9.5" r="9.5" fill="#EAB308"/>
<circle cx="788.5" cy="124.5" r="9.5" fill="#EAB308"/>
<circle cx="789.125" cy="36.8747" r="9.8747" transform="rotate(90 789.125 36.8747)" fill="#FB5E56"/>
<circle cx="789.125" cy="66.4997" r="9.8747" transform="rotate(90 789.125 66.4997)" fill="#FEBC2E"/>
<circle cx="789.125" cy="96.1257" r="9.8747" transform="rotate(90 789.125 96.1257)" fill="#28C83F"/>
<path d="M659 49C659 46.2386 661.239 44 664 44C666.761 44 669 46.2386 669 49V212H659V49Z" fill="#B7876C"/>
<path d="M604 65C604 62.7909 605.791 61 608 61H716.386C717.426 61 718.426 61.4055 719.172 62.1304L732.045 74.6304C733.663 76.2014 733.663 78.7986 732.045 80.3696L719.172 92.8696C718.426 93.5945 717.426 94 716.386 94H608C605.791 94 604 92.2091 604 90V65Z" fill="#0CA149"/>
<path d="M608 67C608 65.3431 609.343 64 611 64H715.138C715.872 64 716.58 64.2689 717.129 64.7559L728.964 75.2559C730.309 76.4495 730.309 78.5505 728.964 79.7441L717.129 90.2441C716.58 90.7311 715.872 91 715.138 91H611C609.343 91 608 89.6569 608 88V67Z" fill="#0CA149" stroke="white" stroke-width="2"/>
<path d="M620.047 83V71.6875H622.078V76.8906H622.234L626.656 71.6875H629.141L624.766 76.7656L629.188 83H626.734L623.344 78.1406L622.078 79.625V83H620.047ZM630.438 83V71.6875H637.797V73.3906H632.469V76.4844H637.406V78.1875H632.469V81.2812H637.828V83H630.438ZM639.75 83V71.6875H647.109V73.3906H641.781V76.4844H646.719V78.1875H641.781V81.2812H647.141V83H639.75ZM649.062 83V71.6875H653.312C655.906 71.6875 657.289 73.2656 657.297 75.4375C657.289 77.6016 655.891 79.1719 653.281 79.1719H651.094V83H649.062ZM651.094 77.5H653C654.531 77.4922 655.219 76.6328 655.219 75.4375C655.219 74.2266 654.531 73.3906 653 73.3906H651.094V77.5ZM670.312 75.2969C669.945 74.0938 669.016 73.3594 667.641 73.3594C665.82 73.3594 664.492 74.7812 664.5 77.3281C664.492 79.8984 665.797 81.3281 667.688 81.3281C669.398 81.3281 670.484 80.2969 670.516 78.6875H667.891V77.0781H672.484V78.4375C672.484 81.3516 670.484 83.1562 667.688 83.1562C664.562 83.1562 662.445 80.9297 662.453 77.3438C662.445 73.7109 664.664 71.5312 667.625 71.5312C670.117 71.5312 672.047 73.0781 672.391 75.2969H670.312ZM684.422 77.3438C684.43 81 682.195 83.1562 679.234 83.1562C676.258 83.1562 674.039 80.9922 674.047 77.3438C674.039 73.6875 676.258 71.5312 679.234 71.5312C682.195 71.5312 684.43 73.6875 684.422 77.3438ZM676.094 77.3438C676.086 79.9297 677.391 81.3281 679.234 81.3281C681.086 81.3281 682.383 79.9297 682.375 77.3438C682.383 74.7578 681.086 73.3594 679.234 73.3594C677.391 73.3594 676.086 74.7578 676.094 77.3438ZM688.266 71.6875V83H686.234V71.6875H688.266ZM699.672 71.6875V83H697.859L692.5 75.2656H692.406V83H690.375V71.6875H692.219L697.547 79.4219H697.656V71.6875H699.672ZM709.344 75.2969C708.977 74.0938 708.047 73.3594 706.672 73.3594C704.852 73.3594 703.523 74.7812 703.531 77.3281C703.523 79.8984 704.828 81.3281 706.719 81.3281C708.43 81.3281 709.516 80.2969 709.547 78.6875H706.922V77.0781H711.516V78.4375C711.516 81.3516 709.516 83.1562 706.719 83.1562C703.594 83.1562 701.477 80.9297 701.484 77.3438C701.477 73.7109 703.695 71.5312 706.656 71.5312C709.148 71.5312 711.078 73.0781 711.422 75.2969H709.344Z" fill="white"/>
<rect x="633" y="114" width="62" height="62" rx="11" fill="#4484FF" stroke="white" stroke-width="2"/>
<path d="M645.547 125.391V123.688H654.562V125.391H651.078V135H649.047V125.391H645.547ZM656.156 135V123.688H658.188V128.484H663.453V123.688H665.5V135H663.453V130.188H658.188V135H656.156ZM669.625 123.688V135H667.594V123.688H669.625ZM677.891 126.797C677.797 125.828 676.969 125.266 675.75 125.266C674.469 125.266 673.688 125.891 673.688 126.734C673.688 127.688 674.688 128.078 675.625 128.297L676.688 128.578C678.375 128.969 680 129.859 680 131.828C680 133.812 678.438 135.172 675.719 135.172C673.078 135.172 671.422 133.906 671.328 131.672H673.328C673.422 132.859 674.422 133.438 675.703 133.438C677.047 133.438 677.969 132.781 677.969 131.812C677.969 130.922 677.141 130.547 675.922 130.234L674.641 129.906C672.781 129.422 671.625 128.484 671.625 126.859C671.625 124.859 673.406 123.531 675.781 123.531C678.188 123.531 679.812 124.891 679.844 126.797H677.891ZM648.438 153L645.25 141.688H647.438L649.484 150.016H649.594L651.766 141.688H653.766L655.953 150.031H656.047L658.094 141.688H660.281L657.094 153H655.078L652.812 145.047H652.734L650.453 153H648.438ZM661.953 153H659.781L663.766 141.688H666.266L670.266 153H668.094L667.156 150.203H662.891L661.953 153ZM663.438 148.562H666.609L665.062 144H664.969L663.438 148.562ZM669.672 141.688H671.969L674.75 146.688H674.859L677.641 141.688H679.938L675.828 148.766V153H673.797V148.766L669.672 141.688Z" fill="white"/>
<path d="M646.736 167.789L646 159.684L675.434 160.421V156L685 162.632L675.434 170V164.842L646.736 167.789Z" fill="white"/>
<defs>
<clipPath id="clip0_4903_172662">
<rect x="111.734" y="95.917" width="21.6797" height="14.0151" rx="2.62784" fill="white"/>
</clipPath>
</defs>
</svg>
