<svg width="1923" height="679" viewBox="0 0 1923 679" fill="none" xmlns="http://www.w3.org/2000/svg">
<g clip-path="url(#clip0_4903_172097)">
<circle cx="705.604" cy="375.921" r="48.2485" transform="rotate(-78.9466 705.604 375.921)" stroke="#F3F4F6" stroke-width="18.6018"/>
<path d="M714.852 328.567C741.005 333.676 758.064 359.019 752.955 385.171" stroke="#10B981" stroke-width="18.6018"/>
<circle cx="693.293" cy="371.117" r="20.2428" transform="rotate(-22.9297 693.293 371.117)" fill="#FFF7ED" stroke="#6E9E17" stroke-width="4.21725"/>
<rect x="684.759" y="354.607" width="2.25641" height="17.9972" rx="1.1282" transform="rotate(-22.9297 684.759 354.607)" fill="#6E9E17" stroke="#6E9E17" stroke-width="0.145139"/>
<rect x="696.266" y="359.818" width="2.21118" height="11.4133" rx="1.10559" transform="rotate(22.3107 696.266 359.818)" fill="#6E9E17" stroke="#6E9E17" stroke-width="0.145139"/>
<g opacity="0.95">
<g style="mix-blend-mode:hard-light">
<path d="M1034 481.824C578 404.007 156.5 193.491 2 110.824V445.324C243.5 492.991 555 534.324 720.5 550.324C968.263 574.277 1880.17 603.991 2258 592.324V558.824C1967.17 568.324 1402 544.624 1034 481.824Z" fill="url(#paint0_linear_4903_172097)" fill-opacity="0.5"/>
</g>
<g style="mix-blend-mode:hard-light" filter="url(#filter0_b_4903_172097)">
<path d="M1034 481.824C578 404.007 156.5 193.491 2 110.824V445.324C243.5 492.991 555 534.324 720.5 550.324C968.263 574.277 1880.17 603.991 2258 592.324V558.824C1967.17 568.324 1402 544.624 1034 481.824Z" fill="white" fill-opacity="0.3"/>
</g>
</g>
<path d="M625.481 549.376C647.481 551.376 655.648 559.543 656.981 563.376C611.315 562.709 514.981 562.876 494.981 562.876C469.981 562.876 476.481 545.876 466.981 538.376C457.481 530.876 427.481 563.376 407.481 528.876C387.481 494.376 426.981 480.876 449.481 481.876C471.981 482.876 481.981 518.376 497.481 519.376C512.981 520.376 505.981 499.876 527.981 499.876C549.981 499.876 549.981 509.876 559.981 515.376C569.981 520.876 570.981 511.376 590.481 517.376C609.981 523.376 597.981 546.876 625.481 549.376Z" fill="#F8FAFC"/>
<path d="M473.827 457.363C467.486 459.182 467.496 466.857 471.999 468.324C474.903 469.27 477.013 469.267 479.583 467.319C482.796 464.884 481.754 455.09 473.827 457.363Z" fill="#F8FAFC"/>
<path d="M452.224 456.692C448.901 459.989 452.469 461.65 454.611 462.455C456.447 463.145 457.404 462.716 458.42 460.654C459.689 458.077 456.378 452.57 452.224 456.692Z" fill="#F8FAFC"/>
<path d="M938.109 387.803C939.102 376.769 948.851 368.629 959.885 369.622C970.92 370.614 979.06 380.364 978.067 391.398L975.955 414.88L935.996 411.285L938.109 387.803Z" fill="#4484FF"/>
<path d="M941.446 350.083C942.567 361.469 952.707 369.791 964.093 368.669C975.479 367.548 983.8 357.408 982.679 346.022C981.558 334.636 971.418 326.314 960.032 327.436C948.645 328.557 940.324 338.697 941.446 350.083Z" fill="#F5C2D0"/>
<ellipse cx="1.47975" cy="1.42162" rx="1.47975" ry="1.42162" transform="matrix(-0.999708 0.0241439 0.0241439 0.999708 956.367 352.953)" fill="#334155"/>
<ellipse cx="1.47975" cy="1.46531" rx="1.47975" ry="1.46531" transform="matrix(-0.997481 -0.0709267 -0.0709267 0.997481 966.156 353.711)" fill="#334155"/>
<circle cx="5.17912" cy="5.17912" r="5.17912" transform="matrix(-0.995185 0.0980172 0.0980172 0.995185 947.547 342.784)" fill="#F5C2D0"/>
<circle cx="5.17912" cy="5.17912" r="5.17912" transform="matrix(-0.995185 0.0980172 0.0980172 0.995185 986.914 346.675)" fill="#F5C2D0"/>
<path fill-rule="evenodd" clip-rule="evenodd" d="M942.428 343.789C945.272 346.633 949.063 348.21 953.056 347.816C957.11 347.417 960.563 345.067 962.795 341.64C965.195 347.991 970.954 352.21 977.209 351.594C979.458 351.372 981.521 350.551 983.294 349.278C983.272 348.871 983.241 348.463 983.201 348.052C981.912 334.968 971.637 325.269 960.25 326.391C951.373 327.265 944.44 334.459 942.428 343.789Z" fill="#1E293B"/>
<rect x="952.992" y="364.823" width="12.5574" height="12.5574" rx="6.2787" transform="rotate(-15.0814 952.992 364.823)" fill="#F5C2D0"/>
<path fill-rule="evenodd" clip-rule="evenodd" d="M980.203 336.689L950.642 330.523C952.482 324.934 959.79 321.769 967.554 323.389C975.318 325.008 980.752 330.831 980.203 336.689Z" fill="#FACC15"/>
<rect x="945.711" y="329.495" width="40.2635" height="5.03294" rx="1.67765" transform="rotate(11.7821 945.711 329.495)" fill="#FACC15"/>
<path d="M961.863 326.01C962.431 323.289 965.096 321.543 967.818 322.111C970.539 322.678 972.284 325.344 971.717 328.065L970.347 334.634L960.493 332.579L961.863 326.01Z" fill="#EAB308"/>
<path fill-rule="evenodd" clip-rule="evenodd" d="M646.144 276.961C645.964 275.036 647.379 273.33 649.303 273.15C651.228 272.97 652.934 274.385 653.114 276.31L665.948 413.711C666.128 415.636 664.713 417.342 662.789 417.522C660.864 417.702 659.158 416.287 658.978 414.362L654.836 370.02C654.676 370.059 654.511 370.087 654.341 370.102L620.489 373.264C620.32 373.28 620.152 373.284 619.988 373.276L623.479 410.648C623.658 412.573 622.244 414.279 620.319 414.458C618.395 414.638 616.689 413.224 616.509 411.299L604.326 280.867C604.146 278.942 605.56 277.236 607.485 277.056C609.409 276.877 611.115 278.291 611.295 280.216L613.019 298.671C613.179 298.632 613.344 298.605 613.514 298.589L647.366 295.427C647.535 295.411 647.703 295.407 647.868 295.415L646.144 276.961ZM619.343 366.377C619.504 366.338 619.669 366.311 619.838 366.295L653.69 363.133C653.86 363.117 654.027 363.113 654.192 363.122L653.255 353.094C653.095 353.132 652.93 353.16 652.76 353.176L618.908 356.338C618.739 356.353 618.571 356.357 618.407 356.349L619.343 366.377ZM617.762 349.45C617.923 349.411 618.088 349.384 618.257 349.368L652.109 346.206C652.278 346.19 652.446 346.187 652.611 346.195L651.674 336.167C651.514 336.205 651.348 336.233 651.179 336.249L617.327 339.411C617.158 339.427 616.99 339.43 616.825 339.422L617.762 349.45ZM650.528 329.279C650.697 329.263 650.865 329.26 651.03 329.268L650.093 319.241C649.933 319.28 649.767 319.307 649.598 319.323L615.746 322.485C615.577 322.501 615.409 322.504 615.244 322.496L616.181 332.523C616.341 332.485 616.507 332.457 616.676 332.441L650.528 329.279ZM648.512 302.314L649.449 312.342C649.284 312.334 649.116 312.338 648.947 312.353L615.095 315.515C614.926 315.531 614.76 315.559 614.6 315.597L613.663 305.57C613.828 305.578 613.996 305.574 614.165 305.558L648.017 302.396C648.186 302.381 648.352 302.353 648.512 302.314Z" fill="#74534E"/>
<path d="M1077.36 482.358C1076.56 474.329 1082.41 467.171 1090.44 466.37L1120.73 463.345L1124.05 496.658L1093.77 499.682C1085.74 500.484 1078.58 494.626 1077.78 486.597L1077.36 482.358Z" fill="#475569"/>
<rect x="1046.09" y="479.806" width="34.087" height="6.08696" transform="rotate(3.87002 1046.09 479.806)" fill="#475569"/>
<rect x="1114.92" y="326.971" width="144.261" height="151.565" transform="rotate(-1.507 1114.92 326.971)" fill="#CDEF8E"/>
<path d="M1260.29 366.988L1443.62 362.165C1450.24 361.991 1455.75 367.22 1455.93 373.846L1458.45 469.552L1263.12 474.69L1260.29 366.988Z" fill="#CDEF8E"/>
<rect x="1159.42" y="351.983" width="57.2174" height="57.2174" rx="12" transform="rotate(-1.507 1159.42 351.983)" fill="#2DD9CA"/>
<rect x="1118.85" y="476.698" width="339.753" height="26" transform="rotate(-1.507 1118.85 476.698)" fill="#16A34A"/>
<rect x="1081.76" y="302.878" width="201.478" height="24.9565" rx="12.4783" transform="rotate(-1.507 1081.76 302.878)" fill="#16A34A"/>
<circle cx="1156.08" cy="502.47" r="26.7826" transform="rotate(-1.507 1156.08 502.47)" fill="white" stroke="#1E293B" stroke-width="19.4783"/>
<circle cx="1432.94" cy="495.186" r="26.7826" transform="rotate(-1.507 1432.94 495.186)" fill="white" stroke="#1E293B" stroke-width="19.4783"/>
<path fill-rule="evenodd" clip-rule="evenodd" d="M1404.73 178.178C1404.73 178.145 1404.73 178.113 1404.73 178.08C1404.57 173.388 1400.86 169.705 1396.45 169.853C1392.03 170.002 1388.58 173.926 1388.74 178.617C1388.82 181.13 1389.93 183.353 1391.61 184.854C1391.22 186.01 1391.03 187.254 1391.07 188.545C1391.27 194.341 1396.12 198.881 1401.92 198.686C1407.72 198.492 1412.26 193.636 1412.06 187.84C1411.91 183.27 1408.86 179.481 1404.73 178.178ZM1419.51 260.841C1419.51 260.771 1419.51 260.701 1419.51 260.631C1419.49 260.028 1419.42 259.438 1419.31 258.863C1426.18 257.295 1431.19 251.038 1430.95 243.737C1430.77 238.382 1427.8 233.776 1423.49 231.267C1425.3 229.156 1426.36 226.384 1426.26 223.383C1426.05 217.035 1420.73 212.062 1414.38 212.275C1408.04 212.489 1403.06 217.807 1403.28 224.155C1403.38 227.359 1404.79 230.212 1406.98 232.225C1403.18 235.065 1400.79 239.651 1400.97 244.744C1401.04 246.961 1401.59 249.049 1402.52 250.913C1398.82 252.928 1396.37 256.907 1396.52 261.403C1396.65 265.239 1398.64 268.573 1401.6 270.563C1401.15 272.046 1400.93 273.626 1400.99 275.26C1401.26 283.264 1407.96 289.534 1415.97 289.265C1423.97 288.997 1430.24 282.29 1429.97 274.287C1429.76 267.852 1425.38 262.538 1419.51 260.841Z" fill="#F8FAFC"/>
<path fill-rule="evenodd" clip-rule="evenodd" d="M1204.99 217.393C1205.03 220.429 1202.99 223.009 1200.19 223.774C1200.14 225.95 1199.3 227.936 1197.94 229.451C1201.21 231.445 1203.42 235.027 1203.47 239.141C1203.56 245.501 1198.47 250.727 1192.11 250.811C1185.75 250.896 1180.52 245.809 1180.44 239.448C1180.39 235.535 1182.29 232.051 1185.25 229.93C1183.6 228.351 1182.57 226.138 1182.53 223.677C1182.47 218.801 1186.37 214.795 1191.25 214.73C1191.68 214.724 1192.1 214.749 1192.52 214.804C1193.52 212.564 1195.76 210.992 1198.38 210.957C1201.98 210.909 1204.94 213.791 1204.99 217.393Z" fill="#F8FAFC"/>
<rect x="1401.27" y="310.342" width="35.3043" height="52.9565" transform="rotate(-1.92398 1401.27 310.342)" fill="#1E293B"/>
<path d="M802.727 472.598C803.038 464.536 809.825 458.251 817.887 458.562L848.299 459.732L847.012 493.185L816.6 492.015C808.538 491.705 802.254 484.918 802.564 476.856L802.727 472.598Z" fill="#475569"/>
<rect x="767.57" y="470.217" width="34.087" height="6.08696" transform="rotate(2.20307 767.57 470.217)" fill="#475569"/>
<path d="M849.414 411.278C849.668 404.656 855.244 399.494 861.866 399.748L1039.21 406.571C1045.84 406.826 1051 412.401 1050.74 419.023L1048.58 475.156L847.254 467.411L849.414 411.278Z" fill="#CDEF8E"/>
<rect x="847.258" y="467.41" width="201.478" height="24.9565" transform="rotate(2.20307 847.258 467.41)" fill="#16A34A"/>
<circle cx="882.794" cy="493.752" r="26.7826" transform="rotate(2.20307 882.794 493.752)" fill="white" stroke="#1E293B" stroke-width="19.4783"/>
<circle cx="1011.13" cy="498.69" r="26.7826" transform="rotate(2.20307 1011.13 498.69)" fill="white" stroke="#1E293B" stroke-width="19.4783"/>
<path d="M575.587 386.716C576.203 380.117 582.052 375.267 588.651 375.884L765.36 392.391C771.959 393.007 776.808 398.856 776.192 405.455L770.967 461.385L570.362 442.646L575.587 386.716Z" fill="#CDEF8E"/>
<rect x="570.359" y="442.646" width="201.478" height="24.9565" transform="rotate(5.33676 570.359 442.646)" fill="#16A34A"/>
<circle cx="604.404" cy="470.891" r="26.7826" transform="rotate(5.33676 604.404 470.891)" fill="white" stroke="#1E293B" stroke-width="19.4783"/>
<circle cx="732.279" cy="482.836" r="26.7826" transform="rotate(5.33676 732.279 482.836)" fill="white" stroke="#1E293B" stroke-width="19.4783"/>
<path d="M969.075 391.122C970.842 386.068 976.371 383.402 981.425 385.169C986.567 386.966 989.22 392.646 987.296 397.742L983.159 408.705L965.239 402.099L969.075 391.122Z" fill="#4484FF"/>
<path d="M988.776 386.617C988.002 380.911 973.436 374.211 966.5 371.324L967.968 374.9L987.28 397.824C988.087 396.466 989.55 392.322 988.776 386.617Z" fill="#4484FF"/>
<path d="M1173.02 258.541C1172.99 257.437 1173.86 256.517 1174.96 256.487L1204.95 255.664C1206.05 255.634 1206.97 256.505 1207 257.609L1207.8 286.6C1207.98 293.225 1202.76 298.743 1196.13 298.924L1186.14 299.199C1179.51 299.381 1173.99 294.157 1173.81 287.532L1173.02 258.541Z" fill="#166534"/>
<circle cx="1207.11" cy="274.117" r="6" transform="rotate(1.16026 1207.11 274.117)" stroke="#166534" stroke-width="5"/>
<path d="M1118.69 259.783C1118.67 258.678 1119.55 257.766 1120.66 257.745L1150.65 257.173C1151.75 257.152 1152.67 258.03 1152.69 259.135L1153.24 288.131C1153.37 294.758 1148.1 300.232 1141.47 300.358L1131.47 300.549C1124.85 300.675 1119.37 295.406 1119.25 288.78L1118.69 259.783Z" fill="#F8FAFC"/>
<path d="M1122.55 264.241C1122.53 263.136 1123.41 262.224 1124.52 262.203L1146.97 261.775C1148.07 261.754 1148.98 262.632 1149.01 263.736L1149.41 284.927C1149.54 291.553 1144.27 297.027 1137.64 297.154L1135.18 297.201C1128.56 297.327 1123.08 292.058 1122.96 285.432L1122.55 264.241Z" fill="url(#paint1_linear_4903_172097)"/>
<rect x="1134.69" y="287.355" width="8" height="8" rx="2" transform="rotate(-21.8536 1134.69 287.355)" fill="url(#paint2_linear_4903_172097)"/>
<rect x="1127.33" y="277.413" width="8" height="8" rx="2" transform="rotate(8.05504 1127.33 277.413)" fill="url(#paint3_linear_4903_172097)"/>
<rect x="1137.51" y="274.831" width="8" height="8" rx="2" transform="rotate(-6.46602 1137.51 274.831)" fill="url(#paint4_linear_4903_172097)"/>
<path d="M923.5 358.825C929.5 364.025 944.333 368.991 951 370.825L940.5 384.825L916 373.325C916 366.325 917.5 353.625 923.5 358.825Z" fill="#4484FF"/>
<rect x="955" y="384.028" width="20" height="28.9243" rx="10" transform="rotate(-37.6059 955 384.028)" fill="#4484FF"/>
<rect x="968.633" y="393.551" width="16.7538" height="36.2223" rx="8.37692" transform="rotate(107.56 968.633 393.551)" fill="#F5C2D0"/>
<path d="M977.154 394.439C982.475 395.917 985.59 401.43 984.111 406.751C982.633 412.072 977.12 415.187 971.799 413.708L948 407.094L953.355 387.824L977.154 394.439Z" fill="#4484FF"/>
<ellipse cx="934.781" cy="391.2" rx="7.0669" ry="9.81031" transform="rotate(18.2055 934.781 391.2)" fill="#F5C2D0"/>
<rect x="878.977" y="436.667" width="133.704" height="32" rx="16" transform="rotate(-66.8489 878.977 436.667)" fill="#334155"/>
<circle cx="899.98" cy="428.246" r="10.7397" transform="rotate(-66.8489 899.98 428.246)" fill="#94A3B8"/>
<path d="M897.613 432.717L902.653 430.866C903.127 430.692 903.356 430.156 903.155 429.693L899.917 422.26" stroke="#1E293B" stroke-width="2.19178" stroke-linecap="round"/>
<path d="M915.374 377.387C914.925 377.786 913.518 378.555 911.482 378.436C904.866 377.341 904.432 371.344 904.016 368.372C903.654 363.374 903.897 355.969 909.793 351.914C917.162 346.845 921.241 354.352 919.398 355.62C917.556 356.887 916.219 354.549 915.298 355.183C914.377 355.817 913.099 357.51 914.574 360.838C916.049 364.166 919.228 365.236 919.505 367.216C919.727 368.801 918.792 369.336 918.297 369.405C918.65 369.524 919.313 370.172 919.138 371.812C918.972 373.369 917.948 373.347 917.382 373.117C917.73 373.308 918.168 373.992 917.642 375.555C917.071 377.25 915.892 377.482 915.374 377.387Z" fill="#F5C2D0"/>
<path d="M800.389 556.318L790.343 547.528L780.297 533.715L806.667 537.482C805.83 540.412 801.393 543.258 800.389 546.272C799.384 549.286 799.97 553.807 800.389 556.318Z" fill="#0A1830"/>
<rect x="760.148" y="551.295" width="20.0918" height="32.4909" rx="10.0459" transform="rotate(39.3649 760.148 551.295)" fill="#F5C2D0"/>
<path d="M734.998 571.524L747.624 556.464L760.299 567.831C764.459 571.563 764.758 577.99 760.985 582.112C757.184 586.264 750.696 586.501 746.623 582.616L734.998 571.524Z" fill="#4484FF"/>
<path d="M802 557.524C798.4 553.924 799.167 550.358 800 549.024L790 541.524L786.5 557.524C793.167 559.024 805.6 561.124 802 557.524Z" fill="#4484FF"/>
<path d="M772.977 526.701L796.283 544.63L759.498 583.601L747.464 559.866L772.977 526.701Z" fill="#4484FF"/>
<rect x="772.922" y="562.886" width="24.2516" height="53.5318" transform="rotate(-45.1857 772.922 562.886)" fill="#4484FF"/>
<path d="M825.557 585.433L813 597.99L819.279 604.27C819.697 603.852 824.804 599.247 841.882 584.177C836.859 579.154 828.906 582.921 825.557 585.433Z" fill="black"/>
<path d="M729.451 565.139L742.471 553.062L739.153 549.484C737.651 547.864 735.075 547.709 733.374 549.12C730.136 551.807 723.962 556.891 713.091 565.78C717.921 570.989 726.01 567.523 729.451 565.139Z" fill="black"/>
<path fill-rule="evenodd" clip-rule="evenodd" d="M847.236 514.916C843.919 512.402 839.193 513.054 836.68 516.37L829.823 525.419C826.796 523.694 822.873 524.256 820.466 526.964C817.701 530.074 817.981 534.837 821.091 537.601L825.22 541.271C825.452 541.478 825.694 541.667 825.943 541.84C826.116 541.998 826.298 542.15 826.488 542.295C829.805 544.808 834.531 544.157 837.044 540.84L848.69 525.471C851.203 522.155 850.552 517.429 847.236 514.916Z" fill="#F5C2D0"/>
<ellipse cx="844.104" cy="519.167" rx="9.11279" ry="6.2787" transform="rotate(35.3113 844.104 519.167)" fill="#F5C2D0"/>
<path d="M767 495.701C781.064 495.701 795.368 499.149 799.135 501.242C801.228 502.497 806.419 505.26 810.437 506.265C814.455 507.269 825.814 517.26 830 522.701C830 523.957 827.515 528.366 825.506 531.379C823.497 534.393 819.646 537.658 817.971 538.914L812 533.701L807.5 541.201L799.135 553.701L760.5 542.701C767 532.201 772 521.201 777.788 515.055C776.783 514.05 773.602 514.636 770.253 515.055C770.253 511.706 767 503.738 767 495.701Z" fill="#4484FF"/>
<path d="M728.85 566.298L741.382 550.902L758.873 566.656C763.003 570.375 763.31 576.747 759.557 580.846C755.826 584.922 749.498 585.201 745.422 581.47L728.85 566.298Z" fill="#4484FF"/>
<ellipse cx="763.254" cy="533.8" rx="9.11279" ry="6.2787" transform="rotate(-12.4769 763.254 533.8)" fill="#F5C2D0"/>
<path d="M834.5 549.201C828.9 551.601 816.167 538.535 810.5 531.701L814.5 524.701L830 522.701L833.5 517.701L847.5 530.701C845.5 535.868 840.1 546.801 834.5 549.201Z" fill="#4484FF"/>
<path d="M793.004 480.68C791.124 491.965 798.187 502.896 809.473 504.776C825.25 509.514 831.371 496.416 833.014 491.756C833.38 490.716 833.487 489.629 833.39 488.531C832.87 482.658 830.099 463.138 816.28 463.906C804.994 462.026 794.883 469.394 793.004 480.68Z" fill="#F5C2D0"/>
<path d="M834.168 488.644C833.052 488.418 833.224 484.004 832.625 483.004L829.686 488.994L825.005 503.004C830.505 500.004 834.902 491.403 835.177 490.297C835.476 489.097 834.964 488.806 834.168 488.644Z" fill="#F5C2D0"/>
<path fill-rule="evenodd" clip-rule="evenodd" d="M828.954 470.885C824.012 470.78 815.048 471.204 806.906 477.966C798.941 484.581 797.962 488.862 796.526 495.14C796.438 495.525 796.348 495.918 796.255 496.319C792.988 491.951 791.44 486.308 792.407 480.503C794.287 469.217 804.96 461.592 816.245 463.472C821.452 464.339 825.88 467.078 828.954 470.885Z" fill="#0F172A"/>
<ellipse cx="1.47975" cy="1.4858" rx="1.47975" ry="1.4858" transform="matrix(-0.997271 0.0738268 0.0738268 0.997271 826.75 480.2)" fill="#334155"/>
<circle cx="5.17912" cy="5.17912" r="5.17912" transform="matrix(-0.986411 -0.164297 -0.164297 0.986411 807.148 478.761)" fill="#F5C2D0"/>
<rect x="803.281" y="493.255" width="14" height="16.1893" rx="7" transform="rotate(35 803.281 493.255)" fill="#F5C2D0"/>
<mask id="path-83-outside-1_4903_172097" maskUnits="userSpaceOnUse" x="791.741" y="452.112" width="39.2793" height="20.0939" fill="black">
<rect fill="white" x="791.741" y="452.112" width="39.2793" height="20.0939"/>
<path fill-rule="evenodd" clip-rule="evenodd" d="M826.936 465.818L796.842 468.324C797.015 462.442 803.119 457.327 811.023 456.669C818.927 456.011 825.794 460.046 826.936 465.818Z"/>
</mask>
<path fill-rule="evenodd" clip-rule="evenodd" d="M826.936 465.818L796.842 468.324C797.015 462.442 803.119 457.327 811.023 456.669C818.927 456.011 825.794 460.046 826.936 465.818Z" fill="#FACC15"/>
<path d="M796.842 468.324L793.844 468.236L793.746 471.592L797.091 471.313L796.842 468.324ZM826.936 465.818L827.185 468.808L830.53 468.53L829.879 465.236L826.936 465.818ZM797.091 471.313L827.185 468.808L826.687 462.829L796.594 465.334L797.091 471.313ZM799.841 468.411C799.951 464.662 804.198 460.248 811.272 459.659L810.774 453.68C802.041 454.407 794.078 460.222 793.844 468.236L799.841 468.411ZM811.272 459.659C818.347 459.07 823.265 462.721 823.993 466.401L829.879 465.236C828.322 457.372 819.508 452.953 810.774 453.68L811.272 459.659Z" fill="#EAB308" mask="url(#path-83-outside-1_4903_172097)"/>
<rect x="791.828" y="468.742" width="40.2635" height="5.03294" rx="1.67765" transform="rotate(-4.75871 791.828 468.742)" fill="#FACC15"/>
<path d="M770.007 529.487C770.343 533.635 767.254 537.27 763.107 537.606C758.959 537.943 755.324 534.854 754.987 530.706L753.03 506.589C752.693 502.442 755.782 498.807 759.93 498.47C764.077 498.133 767.713 501.223 768.049 505.37L770.007 529.487Z" fill="#F5C2D0"/>
<path d="M769.998 516.201C769.998 514.201 776.331 513.868 776.498 514.201V507.201L766.998 495.701C765.498 495.701 767.598 495.501 757.998 496.701C748.398 497.901 749.665 521.001 751.998 530.001L771.998 526.001C771.664 524.501 769.998 518.201 769.998 516.201Z" fill="#4484FF"/>
</g>
<defs>
<filter id="filter0_b_4903_172097" x="-10" y="98.8242" width="2280" height="508.118" filterUnits="userSpaceOnUse" color-interpolation-filters="sRGB">
<feFlood flood-opacity="0" result="BackgroundImageFix"/>
<feGaussianBlur in="BackgroundImageFix" stdDeviation="6"/>
<feComposite in2="SourceAlpha" operator="in" result="effect1_backgroundBlur_4903_172097"/>
<feBlend mode="normal" in="SourceGraphic" in2="effect1_backgroundBlur_4903_172097" result="shape"/>
</filter>
<linearGradient id="paint0_linear_4903_172097" x1="2.00001" y1="244.824" x2="1921" y2="566.824" gradientUnits="userSpaceOnUse">
<stop stop-color="#E35975"/>
<stop offset="0.195" stop-color="#E39668"/>
<stop offset="0.45" stop-color="#D6D291"/>
<stop offset="0.69" stop-color="#88DF9E"/>
<stop offset="1" stop-color="#71CEA9"/>
</linearGradient>
<linearGradient id="paint1_linear_4903_172097" x1="1135.74" y1="261.989" x2="1136.41" y2="297.177" gradientUnits="userSpaceOnUse">
<stop stop-color="#422006"/>
<stop offset="1" stop-color="#A8510F"/>
</linearGradient>
<linearGradient id="paint2_linear_4903_172097" x1="1138.69" y1="287.355" x2="1138.69" y2="295.355" gradientUnits="userSpaceOnUse">
<stop stop-color="#BFDBFE"/>
<stop offset="1" stop-color="#60A5FA"/>
</linearGradient>
<linearGradient id="paint3_linear_4903_172097" x1="1131.33" y1="277.413" x2="1131.33" y2="285.413" gradientUnits="userSpaceOnUse">
<stop stop-color="#BFDBFE"/>
<stop offset="1" stop-color="#60A5FA"/>
</linearGradient>
<linearGradient id="paint4_linear_4903_172097" x1="1141.51" y1="274.831" x2="1141.51" y2="282.831" gradientUnits="userSpaceOnUse">
<stop stop-color="#BFDBFE"/>
<stop offset="1" stop-color="#60A5FA"/>
</linearGradient>
<clipPath id="clip0_4903_172097">
<rect width="1923" height="679" fill="white"/>
</clipPath>
</defs>
</svg>
